<?xml version="1.0" encoding="utf-8"?>
<!-- Generator: Adobe Illustrator 28.0.0, SVG Export Plug-In . SVG Version: 6.00 Build 0)  -->
<svg version="1.1" id="Capa_1" xmlns="http://www.w3.org/2000/svg" xmlns:xlink="http://www.w3.org/1999/xlink" x="0px" y="0px"
	 viewBox="0 0 563 797" style="enable-background:new 0 0 563 797;" xml:space="preserve">
<style type="text/css">
	.st0{fill:#FFFFFF;}
</style>
<g transform="translate(0.000000,797.000000) scale(0.100000,-0.100000)">
	<path class="st0" d="M3015,6595c-33-8-94-22-135-31c-178-40-306-102-376-181c-16-18-45-29-135-48c-63-13-143-33-177-44
		c-59-18-69-18-130-6c-152,32-342,21-429-23c-67-35-114-99-128-175c-4-20-11-37-17-37c-16,0-168-79-204-107c-52-39-94-117-94-176
		c0-100,116-255,245-326c33-19,88-50,123-70l64-36l-6-65c-3-36-1-83,5-104c22-81,166-184,271-194l48-5l51-99l51-100l-33-122
		c-17-66-36-129-40-138c-5-9-123-72-262-141c-139-68-270-139-292-158c-40-35-105-159-146-276c-30-88-59-245-65-363
		c-7-120,10-407,31-525c7-44,17-106,20-137c5-42,12-62,27-72l20-14l-21-21c-12-12-21-27-21-35c0-7-11-33-24-58c-19-36-25-66-31-170
		c-4-80-3-133,3-145c8-14,5-38-9-88c-36-131-22-208,49-271c49-43,148-93,218-109c98-23,128-24,132-3c5,24-48,55-118,69
		c-68,15-145,57-199,109c-40,39-41,42-40,102c1,35,4,73,7,86c7,22,10,20,46-28c42-55,85-84,110-74c27,11,18,33-45,107
		c-85,100-90,115-84,247c4,86,10,117,25,143c11,17,20,40,20,49c0,31,40,48,111,48c53,0,77-6,127-31c34-17,70-43,81-58
		c24-34,35-89,23-120l-9-24l-27,36c-47,61-221,136-233,100c-3-7,25-27,65-47c38-19,83-47,101-62c31-26,61-72,61-94c0-16-36-12-51,7
		c-31,37-159,72-159,43c0-5,26-22,57-37s63-38,71-51c14-21,13-23-21-37c-20-8-49-15-65-15c-15,0-37-6-47-14c-16-12-17-16-6-30
		c7-9,28-16,46-16c46,0,147,40,152,60c3,10,20,25,39,34c33,15,35,19,32,59c-2,29,2,47,14,59c9,9,19,38,23,65c3,26,13,60,21,75
		c21,39,29,111,14,139c-7,13-26,40-41,60c-33,42-39,89-11,89c26,0,40-29,72-156c21-80,30-139,30-192c0-73-6-106-45-246
		c-19-66-13-109,13-104c18,3,37,60,73,213c31,131,24,213-33,400c-26,87-51,124-90,132c-22,4-27,10-23,22c4,9,15,66,26,126
		c26,152,36,195,71,310c17,55,46,168,64,250c19,83,52,231,75,330c40,181,58,250,85,337c14,43,22,51,75,79c33,18,73,47,89,66
		c28,31,33,47,33,96c0,13,5,16,18,12c37-12,205-7,269,8c48,11,78,13,114,6c73-14,127,4,193,64c30,28,72,78,94,111l39,61v-105
		c0-81,5-114,20-147c36-81,124-137,270-173c47-12,120-38,162-57c82-38,112-38,106-1c-4,32-124,90-253,124c-55,14-123,39-152,55
		c-78,45-91,73-103,224c-13,159-9,181,33,191c18,3,85,28,149,54c108,45,118,47,131,32c16-18,85-128,180-287c32-55,105-170,161-255
		c57-85,117-180,134-211c18-31,39-62,47-69c18-15,45-6,45,15s-82,165-140,245c-46,64-106,159-249,395c-41,66-89,143-108,172l-35,52
		l26,34c14,18,32,50,41,70c16,38,14,50-22,203c-4,16,26,51,134,160c76,76,151,158,166,181c68,100,137,318,137,432
		c0,46-26,101-68,144c-39,40-83,57-147,57c-28,0-44,6-52,18c-6,11-36,40-67,66c-80,69-167,96-299,95C3121,6609,3048,6602,3015,6595z
		 M3327,6535c60-23,143-84,143-106c0-4-26-10-57-14c-85-10-218-43-343-87c-50-17-59-17-90-5c-58,24-178,40-312,41c-71,0-128,3-128,6
		c1,6,44,30,145,79c45,22,121,48,175,59c52,12,124,28,160,36C3128,6568,3248,6564,3327,6535z M3529,6370c13-6,22-31,31-84
		c12-70,11-79-13-163c-14-50-36-106-48-127l-21-36l-20,40c-11,22-27,40-34,40c-16,0-17,3-34,69c-19,72-59,103-177,137
		c-57,16-103,32-103,35c0,4,17,11,38,17c162,44,205,55,267,67C3507,6381,3508,6382,3529,6370z M3676,6361c17-11,41-40,54-66l23-46
		l-22-110c-27-133-78-248-150-339c-54-68-235-250-249-250c-4,0-16,16-26,35c-19,35-19,36,0,60c10,13,57,71,104,129
		c103,125,154,209,181,296c28,88,35,202,16,263l-15,47h26C3633,6380,3659,6371,3676,6361z M2846,6307c3-2-44-7-103-10
		c-106-7-259-39-337-72c-22-9-49-14-64-10c-24,6-24,7-6,26c41,45,110,68,244,82C2611,6326,2841,6312,2846,6307z M2276,6255
		c-23-17-42-19-51-6c-5,10,16,18,50,20C2295,6269,2295,6269,2276,6255z M1983,6253c37-3,67-9,67-12c0-10-205-101-228-101
		c-11,0-73-13-138-30c-66-16-122-30-126-30s0,20,9,45C1604,6235,1739,6276,1983,6253z M2890,6246c0-3-33-22-73-43l-73-38l-129,1
		c-156,2-155,2-155,12c0,17,188,55,300,62c63,4,118,8,123,8C2887,6249,2890,6248,2890,6246z M3158,6199c152-42,175-63,175-157
		c0-32-5-68-12-82c-21-40-86-140-91-140c-3,0-20,29-38,64s-52,83-75,107c-53,56-152,108-217,116c-78,9-78,22,3,77
		c70,46,73,48,127,41C3060,6222,3118,6210,3158,6199z M2218,6205c3-3-1-13-10-21c-12-12-43-17-124-20l-109-5l65,30
		c54,26,74,30,119,26C2188,6213,2215,6209,2218,6205z M2300,6181c0-5-9-11-20-14c-20-5-26,3-13,16C2276,6193,2300,6191,2300,6181z
		 M2394,6111c3-5-16-28-42-52c-90-84-151-160-197-250c-38-74-47-102-52-162s-12-81-40-124c-19-29-37-53-40-53c-9,0-173,112-184,126
		c-8,10-3,28,22,71c128,227,233,336,414,432C2315,6120,2384,6127,2394,6111z M2119,6093c-7-10-47-54-90-98c-85-89-125-144-198-269
		l-48-85l-66,66c-44,44-78,90-102,138c-19,39-35,76-35,81c0,7,174,123,238,159c14,7,162,21,261,24C2128,6110,2131,6109,2119,6093z
		 M2598,6081c9-5-12-26-75-71c-48-35-116-91-150-124c-35-32-63-56-63-52c0,24,97,183,139,229c35,37,38,38,85,32
		C2562,6092,2590,6085,2598,6081z M2766,6087c42-18,107-61,124-83c14-16,13-17-2-11c-10,3-41,9-69,13c-42,6-52,11-60,33
		c-6,14-18,34-26,43C2714,6103,2726,6105,2766,6087z M1710,6065c0-5-134-85-143-85c-4,0-7,11-7,24c0,20,9,26,68,44
		C1703,6070,1710,6072,1710,6065z M2684,6034c9-8,16-19,16-24c0-9-108-26-116-18c-4,5,65,56,78,57C2666,6050,2676,6043,2684,6034z
		 M3008,6010c49-26,61-36,102-90c49-63,70-104,70-135v-27l-40,41c-37,38-80,55-80,30c0-6,20-34,44-62l45-50l-22-28
		c-25-32-37-36-37-13c0,31-81,268-106,311c-14,24-22,43-19,43S2987,6021,3008,6010z M1504,5964c6-30,3-40-19-62
		c-55-55-100-183-85-242c16-66,29-102,50-137c11-19,20-36,20-39c0-11-60,35-118,90c-140,134-148,255-24,339c37,25,151,86,163,87
		C1495,6000,1501,5984,1504,5964z M3410,5942c0-25-10-53-29-83c-30-45-137-156-145-148c-2,2,25,44,60,94c35,49,72,109,82,132
		C3399,5990,3410,5992,3410,5942z M2304,5918c-15-29-35-77-45-107c-18-51-92-161-110-161c-25,0,73,204,132,273c23,26,43,47,45,47
		S2318,5946,2304,5918z M2682,5917c42-34,94-114,83-125c-5-5-168,145-173,160C2583,5973,2640,5951,2682,5917z M2868,5931
		c79-40,105-79,141-207c32-114,33-117,14-135c-18-19-20-17-106,58c-67,60-87,83-87,103c0,57-31,131-72,172l-41,41l55-6
		C2803,5954,2846,5942,2868,5931z M2560,5939c0-6,19-30,43-53c73-73,157-169,157-180c-1-34-44-99-89-134c-108-85-230-103-300-44
		c-28,23-33,33-33,73c0,55,52,195,96,256c16,24,48,54,70,68C2550,5952,2560,5955,2560,5939z M1600,5732c11-15,50-56,85-92l65-66
		l-30-83c-16-46-31-85-34-88c-2-2-20,3-39,11c-91,38-192,193-190,292c1,51,20,107,50,153l16,24l28-62C1566,5787,1588,5747,1600,5732
		z M2345,5783c-5-10-18-47-31-83l-23-65l-1,54c0,46,4,59,27,83C2348,5804,2355,5807,2345,5783z M2250,5493c0-84-3-153-6-153
		s-19,8-35,17c-31,19-52,72-62,161c-5,39-1,47,40,98c34,42,48,52,54,42C2246,5651,2250,5576,2250,5493z M2885,5600l69-69l-134-65
		c-186-89-360-145-360-117c0,5-18,28-40,51s-40,45-40,50s17,4,37-2c123-34,332,71,374,187c7,19,15,35,19,35
		C2813,5669,2846,5638,2885,5600z M3136,5545c-33-30-64-51-69-48c-10,6,23,38,78,75C3204,5611,3202,5605,3136,5545z M3271,5543
		l23-36l-23-16c-12-9-44-33-71-53c-27-21-51-38-54-38c-2,0-11,12-21,26l-17,26l69,64c37,34,69,63,70,64
		C3248,5580,3259,5564,3271,5543z M2343,5444c14-28,38-65,53-83c14-18,25-34,22-36c-2-2-30-7-61-11l-57-7v34c0,19-2,79-5,134
		c-5,94-5,97,8,60C2311,5513,2328,5472,2343,5444z M1985,5360c-3-24-9-47-13-51c-11-12-155,19-164,35c-4,7-22,19-39,26
		c-27,12-30,17-26,44c3,17,15,52,27,79l21,47l100-67l100-68L1985,5360z M2115,5449c4-22,5-42,3-44s-14,5-28,15c-21,16-23,21-12,44
		C2095,5501,2107,5496,2115,5449z M3014,5461c3-4-16-23-42-41l-47-33l40,41C3008,5474,3007,5473,3014,5461z M3342,5361
		c4-36,3-74-3-89c-11-28-37-62-49-62c-3,0-27,29-53,64l-46,65l42,34c51,41,79,57,92,53C3331,5425,3338,5395,3342,5361z M2840,5390
		c-14-10-59-40-101-65c-67-41-90-48-225-75c-169-33-184-35-184-17c0,7,36,19,98,31c100,19,307,87,377,124
		C2855,5414,2873,5416,2840,5390z M3074,5391c10-11,15-24,12-29c-12-20-204-151-276-189c-41-22-95-51-120-65c-25-15-76-35-115-46
		c-66-18-74-18-134-3c-61,16-64,18-78,60c-8,23-13,44-11,46c2,1,98,21,213,44c229,45,314,77,420,161C3043,5415,3051,5417,3074,5391z
		 M2113,5332c37-18,67-35,67-38c0-5-152,6-158,12c-7,5,10,65,16,62C2042,5366,2075,5350,2113,5332z M1710,5300c5,0,18-19,28-42
		c21-47,78-94,129-104c28-5,32-10,35-48c3-22,8-49,12-58c12-26-27-23-92,7c-114,53-152,103-152,200c0,48,3,56,16,51
		C1695,5303,1706,5300,1710,5300z M3193,5230c48-70,48-70,25-79c-13-6-55-24-95-40c-39-17-76-31-81-31c-8,0,61,174,83,210
		C3136,5308,3144,5300,3193,5230z M1885,5255c77-15,95-26,95-53s-135,6-180,45c-33,28-41,50-12,34C1797,5276,1841,5264,1885,5255z
		 M2270,5224c0-13-220-40-245-30c-8,3-15,13-15,23c0,16,12,18,130,18C2230,5235,2270,5232,2270,5224z M3004,5149c-18-45-35-83-37-85
		c-5-6-205-34-239-34h-33l31,19c17,11,71,40,120,66s109,62,134,81c25,18,48,34,52,34C3035,5230,3023,5193,3004,5149z M2300,5130
		c7-17,11-32,9-34s-42,9-89,24c-79,25-83,27-50,32c19,3,54,6,76,6C2283,5160,2289,5157,2300,5130z M2104,5121c15-17,16-24,5-60
		c-13-45-22-48-103-34c-33,5-41,12-57,47c-29,65-28,66,59,66C2073,5140,2090,5137,2104,5121z M2242,5064c40-14,77-30,83-35
		c5-5-28-9-83-9c-84,0-92,2-92,19c0,20,9,51,15,51C2167,5090,2202,5078,2242,5064z M2792,4889c-85-82-190-149-235-149
		c-22,0-82,77-112,144c-14,31-25,61-25,66c0,16,102,25,283,25h178L2792,4889z M2083,4928c-17-87-16-87-51-30c-18,29-32,54-32,57
		s20,5,45,5h45L2083,4928z M2298,4954c60-7,62-8,73-43c16-50,57-130,86-168l24-31l-43-8c-24-4-76-7-115-6c-74,2-134,24-190,69
		c-22,18-22,19-7,93c8,41,17,81,19,88C2150,4961,2203,4964,2298,4954z M2814,4818c-28-37-104-98-122-98c-9,0,11,20,45,44
		c33,24,63,51,66,60c4,9,11,16,17,16S2823,4830,2814,4818z M2128,4701c24-21,30-77,12-111c-11-20-78-65-86-58c-6,6,38,188,46,188
		C2103,4719,2115,4711,2128,4701z M1930,4378c0-7-7-38-15-68c-15-56-69-292-129-565c-19-82-47-197-64-255s-40-159-51-225
		c-12-66-31-162-43-212l-21-93h-37c-43,0-116-47-130-84c-7-18-19-25-56-31c-25-3-54-9-63-13c-13-5-14-3-3,10c10,12,10,36,2,109
		c-6,52-12,101-15,109c-14,50-25,212-25,390s3,220,23,320c29,139,106,328,151,374c27,26,444,245,469,246
		C1927,4390,1930,4384,1930,4378z M1627,2888c33-26,73-103,73-140c0-21-2-38-5-38s-21,18-41,39c-19,22-62,52-95,67s-58,33-56,38
		c2,6,19,21,37,34C1573,2910,1599,2910,1627,2888z"/>
	<path class="st0" d="M3928,4338c-20-11-42-32-50-46c-7-14-27-39-45-57c-40-40-56-98-47-178c7-68,28-114,56-123c17-5,17-8-3-45
		c-13-27-19-57-18-92c0-29-4-72-10-97c-5-25-10-65-11-90c0-76,54-121,113-96c16,8,17-8,17-242c0-138,3-257,6-266c10-26,43-19,50,11
		c9,35-3,400-17,513l-10,89l99,98c69,68,109,116,129,157l30,59l11-33c17-46,15-87-8-193c-11-50-33-189-51-307c-30-209-31-222-25-465
		c3-137,8-316,12-396l6-147l-56-92c-31-51-77-116-104-144c-26-28-61-67-77-86c-111-128-154-120-242,46c-48,90-55,115-90,309
		c-23,128-24,157-19,330c3,107,1,196-4,205c-25,41-40-43-46-265c-4-160-2-209,15-310c31-193,50-245,135-379c53-82,116-113,172-83
		c67,36,233,224,306,347c70,119,76,158,55,390c-19,200-20,340-7,520c11,150,45,394,76,548l25,122l-25,62c-18,44-22,66-15,79
		c18,35,10,145-15,202c-31,70-101,142-152,156C4033,4366,3969,4362,3928,4338z M4125,4264c53-40,91-111,104-192c6-39,11-73,11-75
		c0-15-128,123-133,143c-3,14-20,47-37,73l-30,48l-55-6c-30-4-55-4-55-1s15,15,33,27C4006,4308,4077,4301,4125,4264z M3889,4201
		c6-10,13-37,17-60s10-44,15-46c4-3,1-21-7-40s-14-48-14-65c0-35-10-38-34-11c-17,19-40,147-31,173C3861,4227,3871,4236,3889,4201z
		 M4029,4174c14-31,15-30-30-37c-34-5-37-3-47,29l-10,34h37C4010,4200,4019,4195,4029,4174z M4100,4045c20-14,51-41,70-60l34-35
		l-25-27c-14-16-42-51-62-78c-20-28-69-80-109-115c-90-80-95-86-109-132c-13-41-20-46-39-23c-15,18-5,104,20,161c13,31,28,46,62,63
		c24,11,50,21,57,21s11,6,9,13c-7,19-76,21-103,3c-14-9-26-16-29-16c-11,0,17,61,40,86c24,25,29,26,90,20c38-4,64-3,64,3
		c0,11-80,51-103,51c-20,0-21,13-6,43C3995,4088,4030,4093,4100,4045z"/>
</g>
</svg>
