<?xml version="1.0" standalone="no"?>
<!DOCTYPE svg PUBLIC "-//W3C//DTD SVG 20010904//EN"
 "http://www.w3.org/TR/2001/REC-SVG-20010904/DTD/svg10.dtd">
<svg version="1.0" xmlns="http://www.w3.org/2000/svg"
 width="564.000000pt" height="564.000000pt" viewBox="0 0 564.000000 564.000000"
 preserveAspectRatio="xMidYMid meet">

<g transform="translate(0.000000,564.000000) scale(0.100000,-0.100000)"
fill="#000000" stroke="none">
<path d="M2013 5384 c-85 -18 -146 -52 -220 -118 -132 -120 -178 -219 -213
-451 -15 -99 -27 -128 -77 -185 -125 -144 -237 -362 -278 -544 -8 -33 -19
-116 -24 -185 -13 -154 -7 -1170 8 -1426 6 -99 16 -271 21 -383 5 -112 17
-274 26 -360 13 -131 15 -234 10 -622 -4 -256 -9 -488 -12 -516 -10 -90 19
-101 282 -108 136 -4 194 -2 233 9 64 17 126 56 134 84 9 37 -13 51 -91 58
-40 3 -75 10 -79 15 -3 6 61 9 170 6 166 -3 177 -2 204 18 19 15 28 30 28 50
0 28 -2 29 -60 36 -94 11 -290 88 -298 118 -4 15 79 437 123 625 59 252 58
240 67 760 8 509 8 781 -2 900 l-6 70 58 -65 c32 -36 99 -108 148 -160 50 -52
119 -138 153 -191 64 -99 154 -192 208 -215 50 -21 126 -27 146 -12 23 17 14
28 -54 67 -78 44 -85 60 -9 22 67 -34 131 -41 151 -16 11 13 3 25 -56 80 -38
35 -86 74 -106 87 -21 13 -38 26 -38 30 0 4 28 7 61 7 55 -1 92 12 77 26 -3 3
-54 15 -114 26 -59 11 -120 27 -135 35 -15 7 -45 39 -68 71 -23 32 -90 126
-150 208 -59 83 -120 169 -134 190 -30 46 -149 361 -145 382 2 9 32 -10 83
-53 189 -157 276 -214 330 -214 58 0 125 35 317 166 252 173 271 184 295 184
12 0 25 5 28 10 4 6 -7 10 -26 10 -31 0 -98 -41 -402 -248 -183 -125 -216
-129 -338 -41 -139 100 -289 228 -293 252 -3 12 -8 47 -11 77 -3 30 -17 95
-30 145 -13 49 -27 101 -30 115 -6 20 3 15 42 -27 26 -29 73 -83 103 -120 61
-75 118 -134 232 -242 95 -90 104 -91 253 -26 129 56 195 91 416 220 19 11 57
43 86 72 l51 52 98 -1 c83 -1 94 -3 78 -15 -10 -7 -39 -13 -65 -13 -36 0 -55
-6 -76 -24 -15 -13 -25 -28 -20 -32 4 -4 17 2 30 14 13 12 32 22 43 22 16 -1
15 -3 -7 -15 -15 -8 -29 -23 -32 -35 -3 -11 -17 -24 -30 -29 -20 -8 -27 -19
-32 -48 -3 -21 -12 -51 -20 -66 -13 -25 -13 -31 0 -50 22 -32 18 -63 -10 -81
-33 -22 -33 -72 -2 -159 35 -95 73 -154 146 -228 76 -75 130 -105 161 -89 32
17 155 112 159 122 5 13 -21 -1 -98 -56 -36 -25 -74 -46 -84 -46 -87 0 -268
240 -283 376 -6 46 -4 52 20 71 18 15 26 31 27 54 l1 34 11 -27 c13 -34 32
-35 78 -4 41 28 189 116 195 116 2 0 28 16 59 35 48 31 55 40 55 68 -1 40 -17
69 -53 97 -34 27 -63 28 -107 6 -41 -20 -43 -20 -31 3 10 18 78 51 106 51 24
0 92 -68 115 -115 11 -23 29 -45 39 -48 13 -3 17 -12 14 -33 -5 -37 50 -129
132 -221 33 -37 59 -71 57 -75 -3 -11 16 -10 22 1 3 5 -13 28 -35 52 -52 56
-141 176 -156 211 -9 21 -9 29 -1 34 20 13 146 -133 184 -212 50 -105 50 -108
-61 -200 -52 -43 -95 -82 -95 -85 0 -3 31 -36 68 -75 37 -38 94 -98 125 -133
l58 -63 45 11 c65 17 72 4 18 -32 -25 -17 -60 -49 -76 -71 l-30 -41 4 60 3 60
-85 63 c-77 58 -217 138 -226 130 -2 -2 32 -25 76 -51 43 -26 110 -71 149 -99
l70 -53 -6 -46 c-5 -45 9 -94 26 -87 5 2 45 38 91 81 71 67 80 80 69 93 -10
12 -27 15 -71 12 l-58 -4 -72 80 c-40 45 -91 99 -115 122 l-43 41 78 66 c43
37 86 73 97 80 16 13 17 20 7 69 -6 30 -23 77 -39 105 -38 69 -137 179 -191
214 -28 18 -56 47 -73 78 -32 56 -85 101 -118 101 -12 0 -45 -12 -74 -26 -42
-22 -70 -28 -147 -32 -95 -5 -95 -5 -141 -46 -117 -104 -558 -336 -639 -336
-24 0 -52 21 -139 101 -60 55 -122 117 -138 137 -15 20 -76 92 -136 160 -59
67 -112 134 -117 147 -22 57 -50 191 -50 237 0 53 21 74 43 45 24 -32 91 -77
128 -87 55 -15 92 4 185 95 67 64 83 76 107 72 33 -4 42 6 51 56 4 21 27 76
52 123 75 143 94 266 54 350 -25 51 -95 127 -135 147 -76 37 -179 50 -262 31z
m215 -34 c42 -14 68 -32 100 -67 43 -48 82 -133 82 -179 0 -45 -37 -158 -84
-253 -25 -52 -46 -107 -46 -123 0 -25 -3 -28 -34 -28 -27 0 -42 -9 -72 -40
-40 -42 -64 -49 -84 -25 -7 8 -16 15 -21 15 -15 0 -10 -19 10 -39 19 -19 19
-20 -2 -39 -72 -65 -117 -58 -215 30 -47 43 -57 44 -85 6 -18 -24 -18 -32 -8
-90 6 -36 27 -123 47 -194 79 -281 111 -419 102 -444 -3 -10 -82 177 -121 285
-11 33 -27 55 -27 39 0 -18 45 -144 89 -249 23 -55 73 -182 111 -282 77 -204
106 -265 156 -332 89 -117 163 -220 189 -261 44 -69 96 -128 124 -139 14 -6
71 -20 126 -32 55 -11 102 -23 105 -26 3 -3 -28 -3 -67 0 -64 5 -73 4 -73 -11
0 -9 17 -28 38 -42 43 -29 172 -143 167 -148 -5 -5 -63 27 -117 64 -51 36 -89
47 -48 13 14 -11 52 -38 84 -59 74 -49 52 -52 -40 -5 -125 64 -129 30 -5 -51
64 -42 31 -41 -44 1 -68 37 -92 33 -29 -5 43 -27 39 -37 -7 -17 -49 21 -128
107 -203 222 -37 55 -97 132 -134 170 -225 234 -375 453 -432 630 -7 22 -43
101 -80 175 -37 74 -78 163 -90 198 -13 34 -27 65 -31 68 -25 15 0 -53 87
-236 40 -85 86 -192 103 -237 41 -113 74 -175 141 -268 l58 -80 3 -250 c1
-137 -1 -475 -5 -750 -8 -530 -7 -510 -66 -755 -40 -166 -97 -434 -114 -540
-15 -88 -9 -130 19 -130 8 0 43 -15 77 -34 78 -41 127 -57 197 -65 30 -3 56
-11 58 -18 5 -15 -48 -43 -79 -43 -13 1 -110 2 -216 3 -159 2 -194 5 -203 17
-10 16 -9 24 14 140 8 41 18 152 22 245 3 94 13 217 22 275 46 315 49 375 29
600 -10 102 -21 259 -26 350 -13 251 -32 310 -100 310 -47 0 -57 -27 -69 -195
-16 -206 -39 -755 -41 -955 0 -91 -5 -217 -10 -280 -5 -63 -12 -181 -16 -263
-10 -218 0 -234 196 -286 41 -10 110 -22 153 -26 42 -4 80 -12 83 -17 4 -6 -5
-21 -19 -35 -26 -27 -169 -68 -197 -57 -8 3 -82 7 -163 9 -81 2 -164 9 -184
16 l-35 11 7 372 c12 613 12 654 -6 826 -9 91 -20 233 -23 315 -11 250 -16
362 -26 545 -14 238 -13 1213 1 1359 13 138 63 296 135 430 44 80 69 116 164
236 46 57 65 113 80 239 15 123 57 226 125 309 52 62 129 128 185 158 84 43
215 51 308 19z m1171 -1236 c24 -20 58 -91 48 -100 -1 -1 -60 -35 -132 -76
-71 -41 -148 -87 -169 -102 -44 -30 -56 -32 -56 -11 0 8 7 15 16 15 16 0 93
48 132 84 54 48 65 127 21 141 -18 6 -18 8 8 28 29 24 71 45 90 46 6 1 25 -11
42 -25z m-169 -29 c-14 -16 -40 -20 -40 -6 0 10 17 19 39 20 11 1 11 -2 1 -14z
m-6 -31 c42 -6 46 -9 46 -33 0 -64 -119 -161 -197 -161 -24 0 -43 4 -43 9 0 9
48 21 87 21 34 0 25 21 -20 45 -51 27 -46 36 10 19 53 -16 77 -18 69 -5 -3 5
-29 15 -57 21 -38 9 -48 15 -36 21 15 9 93 6 137 -6 l25 -7 -24 22 c-14 12
-37 24 -53 27 -15 3 -33 12 -39 19 -9 11 -6 14 18 14 17 0 51 -3 77 -6z m-141
-139 c0 -6 -7 -11 -16 -13 -12 -3 -15 1 -11 13 7 17 25 17 27 0z m-1468 -1335
c24 -26 33 -89 45 -290 5 -91 16 -262 25 -381 l16 -215 -26 -180 c-15 -100
-32 -284 -40 -419 -9 -163 -18 -259 -30 -299 -9 -32 -14 -71 -11 -88 5 -27 4
-29 -17 -22 -112 34 -122 54 -113 233 4 75 11 183 16 241 6 58 14 263 20 455
18 646 35 951 52 973 15 18 42 15 63 -8z"/>
<path d="M2207 4862 c-18 -20 -23 -42 -9 -42 18 0 46 40 36 50 -7 7 -16 4 -27
-8z"/>
<path d="M1650 4413 c0 -4 14 -16 30 -25 33 -19 68 -69 77 -111 8 -40 24 -44
16 -5 -8 43 -36 99 -59 119 -22 20 -64 34 -64 22z"/>
<path d="M3560 3874 c12 -21 36 -52 52 -69 25 -25 23 -21 -11 32 -46 69 -78
98 -41 37z"/>
<path d="M2845 3116 c-5 -22 -1 -44 9 -64 9 -17 16 -32 16 -34 0 -2 -17 -2
-38 0 -52 5 -112 -21 -112 -48 0 -22 34 -40 76 -40 30 0 30 -5 -1 -42 -14 -16
-25 -38 -25 -48 0 -39 56 -31 92 14 16 20 17 18 11 -54 -10 -128 -27 -205 -44
-202 -8 1 -37 -19 -63 -44 -49 -46 -50 -50 -31 -110 6 -20 2 -21 -72 -27 -43
-3 -93 -11 -110 -17 -54 -20 -38 -54 20 -43 38 7 34 -4 -8 -21 -51 -22 -43
-35 23 -38 l57 -3 -39 -20 c-22 -11 -42 -26 -44 -32 -5 -19 32 -16 113 7 39
11 82 18 96 15 25 -6 26 -8 21 -58 -3 -36 -1 -49 6 -42 6 6 12 28 14 50 3 39
4 40 46 43 23 2 42 -1 42 -6 0 -5 35 -65 78 -133 162 -257 198 -325 178 -332
-14 -6 -76 -92 -76 -107 0 -5 -23 -29 -52 -54 -50 -44 -52 -47 -56 -107 -6
-86 11 -133 57 -154 77 -35 76 -28 32 -166 -22 -68 -50 -158 -62 -199 -34
-112 -94 -269 -123 -320 -17 -30 -44 -57 -83 -82 l-58 -37 -102 14 c-124 16
-140 21 -153 46 -13 24 -9 26 93 32 63 5 89 12 140 39 53 29 67 43 94 94 18
32 50 111 73 176 42 121 113 385 107 401 -2 6 -20 -48 -42 -119 -97 -326 -168
-504 -200 -504 -11 0 -12 6 -6 23 17 46 33 195 30 283 l-4 91 31 -13 c49 -20
61 12 23 60 l-20 26 24 0 c14 0 30 7 37 15 18 21 -4 45 -41 45 -26 0 -29 3
-29 33 0 42 -32 76 -54 58 -8 -7 -18 -25 -21 -41 -6 -28 -7 -28 -34 -12 -15 8
-35 13 -44 9 -22 -8 -22 -53 -1 -61 13 -5 10 -11 -15 -35 -17 -16 -31 -36 -31
-45 0 -22 26 -31 55 -18 22 10 23 10 18 -30 -6 -43 9 -64 35 -49 9 5 22 2 34
-8 17 -14 18 -26 13 -106 -3 -49 -11 -125 -17 -168 -12 -77 -13 -79 -50 -98
-25 -13 -71 -22 -131 -27 -85 -6 -92 -9 -95 -29 -7 -51 57 -79 213 -96 l30 -3
-25 -11 c-14 -7 -51 -19 -82 -28 -50 -13 -58 -19 -58 -39 0 -15 10 -30 27 -42
26 -16 39 -17 188 -6 88 7 181 12 207 12 63 0 78 17 78 87 0 51 9 73 117 285
l118 229 12 -73 c40 -233 65 -305 130 -384 21 -25 52 -53 68 -61 17 -8 51 -29
77 -47 38 -25 48 -37 48 -61 1 -29 2 -29 11 -7 7 19 13 22 31 15 13 -4 68 -7
122 -6 91 2 105 5 165 35 36 18 83 50 105 70 37 36 119 188 152 282 23 63 60
229 79 346 9 58 21 128 26 155 21 101 29 259 18 375 -18 206 -34 278 -93 412
-16 36 -15 38 5 55 70 59 101 100 150 199 49 99 54 115 58 188 4 88 -11 170
-41 229 -33 66 -110 99 -230 99 -94 0 -139 -28 -219 -135 -65 -85 -105 -126
-126 -127 -18 0 -16 -25 2 -40 19 -16 19 -43 0 -97 -22 -64 -30 -165 -15 -194
17 -32 34 -44 102 -75 31 -14 59 -33 62 -41 10 -25 -13 -92 -37 -108 -39 -25
-244 -104 -327 -126 -77 -20 -190 -63 -190 -73 0 -3 21 2 48 10 26 9 88 27
137 40 90 25 250 85 380 144 89 41 156 39 192 -6 13 -16 23 -23 23 -16 0 8
-14 27 -30 44 -29 28 -35 30 -88 26 -31 -3 -66 -9 -76 -13 -17 -8 -18 -5 -12
29 11 58 0 74 -69 107 -35 17 -73 41 -85 54 -20 21 -21 30 -15 89 7 59 9 66
26 61 21 -7 89 12 89 24 0 5 -23 6 -52 3 -50 -5 -51 -4 -44 19 15 54 18 89 8
102 -9 10 -5 18 18 35 16 12 50 52 77 89 85 120 134 151 235 152 59 1 148 -27
180 -56 9 -8 27 -45 39 -80 32 -96 24 -212 -20 -308 -46 -101 -108 -192 -147
-216 -44 -27 -48 -63 -14 -122 26 -47 48 -122 60 -212 17 -128 23 -353 11
-435 -42 -294 -77 -479 -111 -581 -31 -94 -106 -239 -144 -280 -59 -63 -136
-99 -240 -111 -75 -8 -97 -7 -126 5 l-35 15 3 186 c3 177 4 185 21 174 45 -28
73 36 29 66 -20 15 -21 16 -5 34 31 34 13 78 -20 50 -13 -10 -17 -10 -20 -1
-3 7 -13 23 -24 35 l-19 23 -19 -22 c-12 -15 -25 -20 -40 -16 -21 5 -51 -11
-51 -29 0 -5 12 -20 26 -33 l26 -24 -21 -22 c-36 -39 -21 -79 22 -57 12 6 17
5 17 -5 0 -7 6 -22 14 -32 12 -16 16 -17 30 -6 15 12 16 0 16 -142 0 -92 -4
-158 -10 -162 -18 -11 -107 85 -143 153 -39 74 -71 192 -81 292 -4 36 -14 111
-22 168 -14 90 -14 106 -1 125 21 33 39 95 31 108 -4 7 -17 -15 -31 -51 -13
-35 -27 -68 -32 -74 -4 -6 -74 -140 -155 -298 -127 -251 -146 -294 -146 -335
0 -27 -6 -59 -13 -73 -12 -24 -18 -25 -122 -31 -61 -4 -153 -10 -206 -14 -83
-6 -97 -5 -112 10 -23 23 -16 30 40 44 67 17 182 74 232 117 23 20 53 57 66
83 46 92 145 363 145 399 0 7 11 46 24 85 13 40 27 89 31 110 8 42 7 42 60 22
50 -18 85 -19 85 -2 0 6 12 13 26 14 26 1 44 17 44 40 0 6 -27 33 -60 58 -33
25 -60 48 -60 49 0 2 31 1 69 -2 64 -4 70 -3 81 18 16 30 7 37 -81 61 -41 12
-75 23 -77 24 -2 2 8 26 22 54 15 28 22 51 17 51 -12 0 -39 -42 -47 -74 -3
-14 -8 -26 -10 -26 -10 0 -74 29 -74 34 0 3 20 17 44 31 42 24 63 51 51 63 -3
3 -25 1 -48 -5 -23 -6 -43 -10 -44 -9 -6 6 60 86 70 86 7 -1 25 -21 40 -46 17
-25 45 -53 66 -64 21 -10 43 -26 50 -34 17 -20 91 -21 156 -1 27 8 50 13 51
12 39 -56 83 -159 154 -362 66 -187 91 -286 97 -382 5 -73 9 -93 21 -93 11 0
13 8 9 30 -5 23 -3 30 9 30 15 0 15 2 0 25 -9 13 -16 34 -16 45 0 35 -46 207
-89 330 -51 150 -51 146 -23 142 13 -2 32 4 43 14 18 16 19 16 19 -3 0 -11 -7
-40 -16 -66 -9 -26 -14 -52 -11 -59 9 -23 44 75 72 197 63 274 56 257 100 272
22 8 57 14 78 15 38 0 50 14 21 25 -17 6 -160 -29 -249 -63 -33 -12 -107 -36
-165 -54 -58 -17 -118 -36 -134 -41 -51 -16 -102 -11 -133 14 -15 13 -39 30
-53 39 -14 8 -45 51 -69 94 -89 160 -188 321 -278 455 -24 36 -25 37 -106 41
-63 4 -96 1 -145 -14 -35 -11 -66 -18 -68 -16 -2 3 28 18 66 34 39 16 70 33
70 37 0 5 -35 6 -77 3 -86 -7 -73 8 17 20 87 11 65 24 -42 24 -128 1 -113 16
27 30 54 5 100 11 103 15 3 3 -2 21 -12 39 -21 39 -16 54 33 100 35 33 42 22
11 -17 -27 -33 -26 -72 2 -91 34 -24 62 -20 81 13 21 36 22 60 1 89 -23 33
-10 38 14 7 12 -15 24 -47 27 -73 8 -64 9 -65 104 -212 85 -131 185 -261 303
-394 54 -61 26 -5 -34 70 -91 111 -119 148 -199 257 -128 177 -149 213 -149
253 0 48 -35 121 -62 130 -18 5 -19 11 -13 52 13 96 17 111 29 106 17 -7 41
24 56 71 11 34 14 37 21 19 9 -27 56 -64 79 -64 52 0 53 96 1 142 -17 15 -31
30 -31 32 0 2 19 7 43 11 68 11 99 52 57 75 -14 8 -31 8 -58 0 -52 -14 -51
-15 -34 33 9 24 13 51 9 60 -11 28 -53 21 -78 -14 l-22 -31 -14 26 c-28 54
-79 61 -88 12z m72 -25 c33 -49 27 -91 -12 -91 -12 0 -45 73 -45 99 0 43 26
39 57 -8z m111 8 c3 -31 -29 -94 -48 -94 -24 0 -24 51 0 91 25 39 44 40 48 3z
m102 -100 c0 -13 -36 -26 -93 -34 -80 -12 -54 25 30 43 40 9 63 6 63 -9z
m-256 -9 c34 -12 33 -26 -2 -38 -33 -11 -119 -4 -129 11 -18 29 75 49 131 27z
m91 -10 c10 -16 -5 -50 -21 -50 -17 0 -28 24 -20 45 6 17 32 20 41 5z m-62
-46 c8 -9 -83 -104 -100 -104 -30 0 5 59 55 92 30 20 36 21 45 12z m122 -16
c32 -14 55 -56 55 -98 0 -32 -15 -38 -49 -20 -32 16 -67 130 -41 130 5 0 21
-5 35 -12z m-72 -43 c-3 -39 -32 -115 -44 -115 -12 0 -11 66 2 113 7 28 15 37
27 35 12 -3 16 -13 15 -33z m-119 -367 c-4 -24 -8 -45 -10 -47 -5 -5 -34 20
-34 29 0 8 39 60 46 60 2 0 1 -19 -2 -42z m46 -4 c0 -11 -7 -29 -15 -40 -14
-19 -14 -19 -15 2 0 43 12 86 21 72 5 -7 9 -22 9 -34z m960 -771 c0 -5 -14
-63 -30 -131 -35 -142 -58 -174 -120 -169 -32 2 -36 6 -53 52 l-18 51 39 40
c21 23 48 62 60 87 17 37 29 48 64 60 51 18 58 19 58 10z m-162 -103 c-23 -33
-48 -60 -55 -60 -17 0 -63 48 -63 66 0 7 28 21 63 32 101 32 104 30 55 -38z
m-550 18 c-41 -24 -54 -44 -38 -63 8 -9 107 -44 228 -81 6 -2 12 -8 12 -14 0
-13 -74 -13 -124 1 -24 6 -42 7 -48 1 -9 -9 16 -33 96 -95 21 -16 35 -31 33
-34 -6 -5 -123 50 -154 73 -14 10 -23 12 -23 5 0 -14 81 -67 127 -82 32 -10
46 -29 21 -29 -19 1 -95 36 -129 61 -32 23 -53 18 -28 -6 8 -8 41 -28 74 -44
68 -34 55 -40 -26 -12 -126 44 -169 85 -169 161 0 33 19 90 29 87 4 -1 21 13
36 32 28 33 75 60 105 60 8 0 -2 -9 -22 -21z m-363 -344 c0 -32 -3 -39 -20
-39 -24 0 -30 22 -15 59 14 39 35 27 35 -20z m-85 -16 c28 -30 25 -41 -7 -33
-36 8 -47 20 -40 39 9 22 23 20 47 -6z m164 -47 c7 -11 -18 -21 -55 -21 -28 0
-37 9 -22 23 10 10 71 8 77 -2z m-114 -16 c0 -8 -7 -15 -15 -15 -8 0 -15 7
-15 15 0 8 7 15 15 15 8 0 15 -7 15 -15z m-50 -2 c0 -12 -43 -53 -57 -53 -21
0 -15 17 13 39 27 21 44 27 44 14z m119 -47 c29 -31 25 -52 -6 -31 -13 9 -28
25 -33 36 -16 28 11 25 39 -5z m-89 0 c0 -37 -14 -76 -27 -76 -9 0 -12 7 -9
18 3 9 8 29 12 45 6 28 24 38 24 13z m35 -51 c2 -25 -1 -45 -6 -45 -5 0 -9 23
-9 52 0 62 12 57 15 -7z m605 -189 c23 -177 41 -243 90 -334 16 -30 28 -57 26
-59 -6 -6 -72 81 -95 124 -19 38 -37 107 -71 276 -13 64 -13 127 2 167 10 30
12 31 19 13 4 -11 17 -95 29 -187z m257 0 c-4 -9 -11 -16 -17 -16 -11 0 -14
53 -3 64 11 10 27 -30 20 -48z m-52 2 c9 -14 11 -24 5 -26 -16 -6 -62 27 -55
38 10 17 33 11 50 -12z m115 -3 c0 -15 -38 -41 -47 -32 -4 4 36 47 44 47 2 0
3 -7 3 -15z m-70 -45 c0 -5 -4 -10 -10 -10 -5 0 -10 5 -10 10 0 6 5 10 10 10
6 0 10 -4 10 -10z m-36 -24 c-7 -17 -54 -51 -54 -38 0 4 7 18 16 30 17 24 47
31 38 8z m110 -12 c9 -24 7 -34 -6 -34 -14 0 -48 30 -48 42 0 15 48 8 54 -8z
m-84 -29 c0 -19 -4 -35 -10 -35 -11 0 -13 30 -4 54 10 25 14 19 14 -19z"/>
<path d="M4030 3146 c0 -2 7 -9 15 -16 9 -7 15 -8 15 -2 0 5 -7 12 -15 16 -8
3 -15 4 -15 2z"/>
<path d="M4006 3105 c4 -8 11 -15 16 -15 6 0 5 6 -2 15 -7 8 -14 15 -16 15 -2
0 -1 -7 2 -15z"/>
<path d="M3955 2589 c-4 -6 -1 -15 6 -20 18 -12 75 -7 71 6 -2 6 -12 9 -23 7
-11 -2 -26 2 -34 8 -10 8 -15 8 -20 -1z"/>
<path d="M4590 2115 c0 -5 5 -17 10 -25 5 -8 10 -10 10 -5 0 6 -5 17 -10 25
-5 8 -10 11 -10 5z"/>
<path d="M4462 1338 c-7 -7 -12 -17 -12 -22 0 -6 -4 -17 -9 -25 -7 -10 -13
-11 -31 -1 -20 11 -25 10 -37 -6 -14 -19 -8 -54 11 -66 12 -8 12 -9 -37 -31
-45 -20 -47 -49 -5 -57 22 -4 25 -8 18 -20 -5 -8 -10 -26 -10 -39 0 -21 3 -23
30 -17 27 5 29 3 22 -12 -30 -57 -87 -346 -96 -482 -6 -99 6 -66 24 65 24 169
71 372 100 425 l12 23 17 -27 c24 -40 55 -32 59 17 3 34 6 37 25 32 12 -4 17
-3 11 2 -6 4 -16 18 -23 31 -11 20 -10 22 17 22 15 0 33 -5 40 -12 18 -18 15
-46 -5 -52 -11 -3 -8 -4 7 -3 15 1 26 9 28 20 5 24 -35 67 -62 68 -20 0 -20 1
4 17 56 39 79 63 73 78 -6 16 -48 16 -85 -1 -15 -6 -18 -2 -18 23 0 17 -3 37
-6 46 -7 19 -45 21 -62 4z m48 -47 c0 -49 -8 -71 -26 -71 -18 0 -29 63 -15 89
20 36 41 26 41 -18z m-70 -51 c9 -17 8 -20 -13 -20 -29 0 -52 24 -43 45 7 20
40 5 56 -25z m138 -15 c-49 -45 -91 -48 -55 -3 16 21 48 37 72 37 17 0 14 -5
-17 -34z m-148 -46 c0 -11 -60 -39 -86 -39 -27 0 -9 24 27 37 43 15 59 16 59
2z m60 2 c0 -5 -7 -11 -15 -15 -9 -3 -15 0 -15 9 0 8 7 15 15 15 8 0 15 -4 15
-9z m-50 -40 c0 -17 -46 -76 -63 -79 -27 -5 -20 26 12 59 29 28 51 37 51 20z
m70 -45 c0 -17 -5 -38 -10 -46 -9 -13 -12 -12 -25 4 -18 24 -20 67 -3 84 18
18 38 -5 38 -42z"/>
<path d="M4472 918 c-7 -29 -12 -33 -42 -33 -44 0 -53 -28 -15 -47 l26 -14
-21 -19 c-11 -10 -20 -30 -20 -45 0 -24 3 -27 25 -22 22 4 25 1 25 -23 0 -41
40 -31 56 15 12 34 13 32 13 -40 1 -41 -3 -91 -8 -110 -19 -73 -22 -105 -10
-93 16 16 38 135 39 206 0 54 1 57 24 57 58 0 73 26 32 57 l-24 18 29 31 c19
20 27 36 23 47 -9 23 -47 21 -70 -4 l-18 -20 -12 33 c-15 45 -41 49 -52 6z
m41 -20 c6 -39 1 -49 -18 -41 -16 5 -19 30 -9 57 10 26 21 18 27 -16z m97 -5
c0 -10 -52 -63 -62 -63 -17 0 -7 40 14 54 23 17 48 21 48 9z m-145 -34 c4 -6
5 -13 1 -16 -8 -8 -56 6 -56 17 0 13 47 13 55 -1z m43 -47 c3 -16 -1 -20 -12
-16 -19 7 -22 48 -3 42 6 -3 13 -14 15 -26z m-48 -14 c0 -14 -30 -48 -42 -48
-13 0 -9 22 9 42 18 21 33 23 33 6z m135 -9 c13 -13 -9 -32 -31 -27 -11 2 -20
13 -22 27 -3 20 -1 22 20 16 13 -4 27 -11 33 -16z m-106 -52 c-5 -17 -9 -33
-9 -35 0 -2 -5 0 -10 3 -9 6 -5 47 7 68 11 20 20 -7 12 -36z"/>
<path d="M4751 804 c0 -11 3 -14 6 -6 3 7 2 16 -1 19 -3 4 -6 -2 -5 -13z"/>
</g>
</svg>
